<svg fill="#2E3D66" id="Capa_1" enable-background="new 0 0 512.007 512.007" height="512" viewBox="0 0 512.007 512.007" width="512" xmlns="http://www.w3.org/2000/svg"><g><g><g><g><path d="m226.183 134.388c1.465 1.464 3.384 2.196 5.303 2.196s3.838-.732 5.303-2.196l5.19-5.19c2.929-2.929 2.929-7.678 0-10.607-2.893-2.892-7.558-2.929-10.494-.111-2.937-2.818-7.603-2.781-10.494.111-2.929 2.929-2.928 7.678 0 10.607z"/><path d="m205.108 157.941c1.464 1.465 3.384 2.197 5.303 2.197s3.839-.732 5.303-2.196l5.19-5.19c2.929-2.929 2.929-7.678 0-10.607-2.893-2.892-7.557-2.929-10.494-.111-2.938-2.817-7.603-2.781-10.494.111-2.929 2.929-2.929 7.678 0 10.606z"/><path d="m230.489 270.116c-2.929 2.929-2.928 7.678 0 10.607l5.19 5.19c1.465 1.464 3.384 2.196 5.303 2.196s3.838-.732 5.303-2.196l5.19-5.19c2.929-2.929 2.929-7.678 0-10.607-2.893-2.892-7.558-2.929-10.494-.111-2.935-2.817-7.6-2.78-10.492.111z"/><path d="m333.707 130.895c1.465 1.464 3.385 2.197 5.304 2.197s3.839-.732 5.304-2.197l5.19-5.19c2.929-2.929 2.929-7.678 0-10.606-2.894-2.892-7.558-2.929-10.494-.111-2.936-2.817-7.601-2.78-10.494.111-2.929 2.929-2.929 7.678 0 10.606z"/><path d="m321.87 260.015c-2.936-2.816-7.602-2.779-10.492.111-2.93 2.929-2.93 7.678-.001 10.607l5.189 5.19c1.406 1.406 3.314 2.197 5.304 2.197s3.896-.79 5.303-2.196l5.19-5.19c2.93-2.929 2.93-7.678.001-10.607-2.89-2.891-7.554-2.929-10.494-.112z"/><path d="m164.129 245.856 5.19-5.19c2.929-2.929 2.929-7.678 0-10.606-2.892-2.892-7.557-2.929-10.494-.111-2.936-2.818-7.602-2.78-10.493.11-2.929 2.929-2.929 7.678 0 10.607l5.19 5.19c1.407 1.406 3.314 2.197 5.304 2.197s3.897-.791 5.303-2.197z"/><path d="m476.38 197.249c0-81.449-44.62-156.001-116.448-194.563-5.295-2.843-11.38-3.452-17.134-1.72-5.756 1.734-10.49 5.605-13.332 10.9-2.844 5.295-3.454 11.38-1.72 17.135 1.733 5.754 5.605 10.489 10.9 13.332 8.624 4.63 16.745 9.922 24.336 15.775l-16.846 16.846c-25.427-18.819-56.818-29.865-90.474-29.865-28.068 0-55.296 7.646-79.089 22.15-.755-.873-1.534-1.733-2.363-2.562-16.951-16.95-43.59-18.49-62.301-4.608-18.71-13.883-45.351-12.342-62.301 4.608-18.625 18.625-18.644 48.949-.035 67.604l51.561 51.563c.856.856 1.796 1.575 2.785 2.184-.271 3.722-.416 7.485-.416 11.223 0 33.852 11.117 65.153 29.884 90.456l-16.864 16.864c-5.853-7.591-11.145-15.712-15.775-24.336-5.867-10.93-19.534-15.048-30.466-9.181-10.931 5.868-15.05 19.536-9.181 30.467 34.98 65.154 99.573 107.92 172.063 115.305v18.784h-45.479c-18.198 0-33.003 14.805-33.003 33.003v3.039h-2.81c-11.126 0-20.178 9.052-20.178 20.178s9.052 20.179 20.178 20.179h207.583c11.127 0 20.179-9.052 20.179-20.179s-9.052-20.178-20.179-20.178h-2.81v-3.039c0-18.198-14.805-33.003-33.003-33.003h-45.479v-18.78c111.175-11.309 198.217-105.471 198.217-219.581zm-101.884-129.44c3.696 3.391 7.246 6.92 10.621 10.595l-16.701 16.701c-3.365-3.706-6.915-7.237-10.623-10.593zm17.271 112.372c.472 3.797 3.703 6.578 7.434 6.578.309 0 .62-.019.934-.058 4.11-.51 7.029-4.256 6.52-8.366-3.317-26.737-13.516-51.154-28.674-71.58l16.826-16.826c23.319 30.224 36.575 67.743 36.575 107.32 0 96.891-78.827 175.718-175.718 175.718-39.577 0-77.096-13.256-107.32-36.575l16.865-16.865c25.303 18.767 56.604 29.884 90.455 29.884 76.685 0 141.6-57.309 150.997-133.305.508-4.111-2.412-7.855-6.522-8.364-4.113-.506-7.855 2.412-8.364 6.523-4.936 39.918-26.873 74.109-57.998 95.696l-32.45-17.656c-1.576-.858-3.277-1.412-5.058-1.646l-15.306-2.017-1.706-22.929 54.989-28.172c3.568-1.828 6.249-5.087 7.354-8.939l12.603-43.903c1.125-3.915.55-8.152-1.579-11.625l-7.519-12.27c-2.781-4.537-7.813-7.198-13.121-6.933l-14.555.71c-6.822.333-12.567 5.469-13.66 12.213l-5.076 31.356-23.639 7.791-15.061-28.222 5.45-16.957 22.808-6.246c4.858-1.33 8.63-5.001 10.09-9.823l12.22-40.373c2.298-7.585-1.789-15.501-9.304-18.021l-19.343-6.486c-3.48-1.166-7.241-.98-10.591.523l-16.368 7.349-22.439-5.571-6.851-18.727c9.775-2.181 19.825-3.298 29.998-3.298 69.098 0 127.611 51.629 136.104 120.092zm-180.581-112.711 7.323 20.018c1.665 4.548 5.464 7.96 10.164 9.126l22.817 5.666c3.149.782 6.512.479 9.47-.849l16.35-7.341 18.77 6.294-12.025 39.729-22.807 6.245c-4.759 1.304-8.502 4.888-10.012 9.586l-5.58 17.361c-1.2 3.73-.83 7.852 1.015 11.31l15.325 28.715c3.341 6.263 10.659 9.195 17.399 6.973l24.248-7.992c5.18-1.708 8.939-6.113 9.813-11.499l5.063-31.268 13.934-.68 7.279 11.878-12.497 43.535-55.079 28.219c-5.223 2.676-8.315 8.186-7.88 14.035l1.754 23.581c.509 6.84 5.814 12.456 12.615 13.353l15.582 2.053 24.681 13.428c-19.009 9.899-40.555 15.464-63.244 15.464-29.454 0-56.768-9.334-79.143-25.197l35.724-62.721c1.248-2.191 1.907-4.682 1.907-7.203v-19.089c0-4.105-1.746-8.04-4.791-10.794-3.044-2.755-7.137-4.1-11.219-3.69l-16.978 1.702-20.494-6.759.733-14.748 18.398-10.457c5.223-2.969 8.113-8.952 7.191-14.888l-1.642-10.586c-.743-4.787-3.803-8.877-8.185-10.939l-6.58-3.098 3.669-3.669c14.084-14.119 17.484-34.928 10.226-52.289 8.465-5.151 17.417-9.335 26.706-12.515zm-92.269 119.126c1.357-.702 2.631-1.617 3.768-2.753l5.939-5.94c2.929-2.929 2.928-7.678 0-10.607-2.93-2.929-7.677-2.928-10.607 0l-5.939 5.94c-.049.049-.29.049-.339 0l-51.554-51.556c-12.768-12.799-12.755-33.613.028-46.397 12.784-12.784 33.598-12.797 46.398-.028 2.928 2.92 7.666 2.92 10.594 0 12.8-12.77 33.613-12.755 46.398.028 12.783 12.784 12.796 33.598.035 46.391l-20.217 20.218c-2.929 2.929-2.929 7.678 0 10.606 2.929 2.93 7.678 2.929 10.606 0l5.283-5.283 11.251 5.297 1.56 10.053-18.344 10.426c-4.351 2.474-7.097 6.935-7.345 11.933l-.762 15.327c-.324 6.521 3.779 12.503 9.979 14.548l20.903 6.894c1.948.643 3.971.864 6.012.66l16.584-1.663v18.483l-34.508 60.587c-28.285-25.143-46.139-61.778-46.139-102.511.001-3.55.146-7.124.416-10.653zm24.029 112.762c3.361 3.707 6.902 7.247 10.609 10.609l-16.738 16.738c-3.675-3.375-7.204-6.925-10.595-10.621zm-68.631-4.934c-1.956-3.644-.583-8.2 3.06-10.155 1.126-.604 2.339-.891 3.536-.891 2.676 0 5.269 1.434 6.621 3.951 33.327 62.076 97.751 100.638 168.131 100.638 105.162 0 190.718-85.556 190.718-190.718 0-70.38-38.563-134.804-100.639-168.131-1.765-.948-3.056-2.526-3.634-4.444s-.374-3.946.574-5.712c.947-1.765 2.525-3.055 4.443-3.633 1.918-.577 3.946-.374 5.712.573 66.952 35.944 108.543 105.433 108.543 181.347 0 113.433-92.284 205.718-205.718 205.718-75.914 0-145.402-41.591-181.347-108.543zm267.329 174.188v3.039h-97.401c-4.142 0-7.5 3.358-7.5 7.5s3.358 7.5 7.5 7.5h115.21c2.855 0 5.179 2.323 5.179 5.178s-2.323 5.179-5.179 5.179h-207.583c-2.855 0-5.178-2.323-5.178-5.179s2.323-5.178 5.178-5.178h56.446c4.142 0 7.5-3.358 7.5-7.5s-3.358-7.5-7.5-7.5h-38.636v-3.039c0-9.927 8.076-18.003 18.003-18.003h135.958c9.927-.001 18.003 8.075 18.003 18.003zm-78.482-33.004h-15v-17.768c2.493.084 4.993.127 7.5.127 2.511 0 5.009-.058 7.5-.141z"/></g></g></g></g></svg>